<svg width="20" height="20" viewBox="0 0 20 20" fill="none" xmlns="http://www.w3.org/2000/svg">
<path d="M15.8334 11.6667C17.075 10.45 18.3334 8.99167 18.3334 7.08333C18.3334 4.55372 16.2796 2.5 13.75 2.5C12.2834 2.5 11.25 2.91667 10 4.16667C8.75002 2.91667 7.71669 2.5 6.25002 2.5C3.72041 2.5 1.66669 4.55372 1.66669 7.08333C1.66669 9 2.91669 10.4583 4.16669 11.6667L10 17.5L15.8334 11.6667Z" fill="#E8A5C2"/>
<path d="M15.8334 11.6667C17.075 10.45 18.3334 8.99167 18.3334 7.08333C18.3334 4.55372 16.2796 2.5 13.75 2.5C12.2834 2.5 11.25 2.91667 10 4.16667C8.75002 2.91667 7.71669 2.5 6.25002 2.5C3.72041 2.5 1.66669 4.55372 1.66669 7.08333C1.66669 9 2.91669 10.4583 4.16669 11.6667L10 17.5L15.8334 11.6667" stroke="#E8A5C2" stroke-width="1.66667" stroke-linecap="round" stroke-linejoin="round"/>
</svg>
