<svg width="16" height="18" viewBox="0 0 16 18" fill="none" xmlns="http://www.w3.org/2000/svg">
<path d="M13.3334 8.66683C13.3334 11.9955 9.64069 15.4622 8.40069 16.5328C8.16338 16.7113 7.83666 16.7113 7.59935 16.5328C6.35935 15.4622 2.66669 11.9955 2.66669 8.66683C2.66669 5.72328 5.05647 3.3335 8.00002 3.3335C10.9436 3.3335 13.3334 5.72328 13.3334 8.66683" stroke="#E8A5C2" stroke-width="1.33333" stroke-linecap="round" stroke-linejoin="round"/>
<path d="M6 8.6665C6 9.77033 6.89617 10.6665 8 10.6665C9.10383 10.6665 10 9.77033 10 8.6665C10 7.56267 9.10383 6.6665 8 6.6665C6.89617 6.6665 6 7.56267 6 8.6665V8.6665" stroke="#E8A5C2" stroke-width="1.33333" stroke-linecap="round" stroke-linejoin="round"/>
</svg>
