<svg width="24" height="24" viewBox="0 0 24 24" fill="none" xmlns="http://www.w3.org/2000/svg">
<path d="M21.9995 16.92V19.92C22.0017 20.4831 21.7665 21.0211 21.3515 21.4018C20.9366 21.7825 20.3803 21.9707 19.8195 21.92C16.7423 21.5856 13.7865 20.5341 11.1895 18.85C8.77328 17.3146 6.72479 15.2661 5.18945 12.85C3.49943 10.2412 2.44769 7.27097 2.11945 4.17998C2.06893 3.62085 2.25572 3.06623 2.63422 2.6516C3.01271 2.23697 3.54805 2.0005 4.10945 1.99998H7.10945C8.11332 1.9901 8.96895 2.72594 9.10945 3.71998C9.23607 4.68004 9.4709 5.6227 9.80945 6.52998C10.0842 7.26085 9.90847 8.08478 9.35945 8.63998L8.08945 9.90998C9.51301 12.4135 11.5859 14.4864 14.0895 15.91L15.3595 14.64C15.9146 14.091 16.7386 13.9152 17.4695 14.19C18.3767 14.5285 19.3194 14.7634 20.2795 14.89C21.285 15.0318 22.0246 15.9048 21.9995 16.92V16.92" stroke="white" stroke-width="2" stroke-linecap="round" stroke-linejoin="round"/>
</svg>
