<svg width="16" height="16" viewBox="0 0 16 16" fill="none" xmlns="http://www.w3.org/2000/svg">
<path d="M14.6666 11.2802V13.2802C14.6682 13.6557 14.5113 14.0143 14.2347 14.2681C13.9581 14.5219 13.5872 14.6474 13.2133 14.6136C11.1619 14.3907 9.19131 13.6897 7.45998 12.5669C5.8492 11.5433 4.48354 10.1777 3.45998 8.5669C2.3333 6.8277 1.63214 4.84756 1.41331 2.7869C1.37963 2.41414 1.50416 2.0444 1.75649 1.76798C2.00882 1.49155 2.36571 1.33391 2.73998 1.33356H4.73998C5.40922 1.32697 5.97965 1.81754 6.07331 2.48023C6.15773 3.12027 6.31428 3.74871 6.53998 4.35356C6.72314 4.84081 6.60599 5.3901 6.23998 5.76023L5.39331 6.60689C6.34235 8.27593 7.72428 9.65786 9.39331 10.6069L10.24 9.76023C10.6101 9.39422 11.1594 9.27707 11.6466 9.46023C12.2515 9.68593 12.8799 9.84248 13.52 9.9269C14.1904 10.0215 14.6834 10.6034 14.6666 11.2802V11.2802" stroke="#E8A5C2" stroke-width="1.33333" stroke-linecap="round" stroke-linejoin="round"/>
</svg>
