<svg width="20" height="20" viewBox="0 0 20 20" fill="none" xmlns="http://www.w3.org/2000/svg">
<path d="M8.28086 12.9167C8.12935 12.3293 7.6707 11.8707 7.08336 11.7192L1.97086 10.4008C1.79164 10.3499 1.66797 10.1863 1.66797 9.99998C1.66797 9.81368 1.79164 9.65002 1.97086 9.59915L7.08336 8.27998C7.67048 8.12861 8.12908 7.67033 8.28086 7.08332L9.5992 1.97082C9.64956 1.79086 9.81358 1.66644 10.0004 1.66644C10.1873 1.66644 10.3513 1.79086 10.4017 1.97082L11.7192 7.08332C11.8707 7.67065 12.3294 8.1293 12.9167 8.28082L18.0292 9.59832C18.2099 9.64816 18.3351 9.81253 18.3351 9.99998C18.3351 10.1874 18.2099 10.3518 18.0292 10.4017L12.9167 11.7192C12.3294 11.8707 11.8707 12.3293 11.7192 12.9167L10.4009 18.0292C10.3505 18.2091 10.1865 18.3335 9.99961 18.3335C9.81274 18.3335 9.64873 18.2091 9.59836 18.0292L8.28086 12.9167" stroke="#2D1B2E" stroke-width="1.66667" stroke-linecap="round" stroke-linejoin="round"/>
<path d="M16.667 2.5V5.83333" stroke="#2D1B2E" stroke-width="1.66667" stroke-linecap="round" stroke-linejoin="round"/>
<path d="M18.3333 4.16669H15" stroke="#2D1B2E" stroke-width="1.66667" stroke-linecap="round" stroke-linejoin="round"/>
<path d="M3.33301 14.1667V15.8334" stroke="#2D1B2E" stroke-width="1.66667" stroke-linecap="round" stroke-linejoin="round"/>
<path d="M4.16667 15H2.5" stroke="#2D1B2E" stroke-width="1.66667" stroke-linecap="round" stroke-linejoin="round"/>
</svg>
