<svg width="20" height="20" viewBox="0 0 20 20" fill="none" xmlns="http://www.w3.org/2000/svg">
<path d="M9.60417 1.91249C9.67867 1.76199 9.83207 1.66675 10 1.66675C10.1679 1.66675 10.3213 1.76199 10.3958 1.91249L12.3208 5.81166C12.5783 6.33261 13.0751 6.69394 13.65 6.77833L17.955 7.40833C18.1214 7.43244 18.2597 7.54894 18.3117 7.70883C18.3637 7.86873 18.3204 8.04428 18.2 8.16166L15.0867 11.1933C14.6699 11.5995 14.4795 12.1847 14.5775 12.7583L15.3125 17.0417C15.3419 17.208 15.2738 17.3765 15.1371 17.4758C15.0004 17.5751 14.8191 17.5877 14.67 17.5083L10.8217 15.485C10.3069 15.2147 9.69224 15.2147 9.17751 15.485L5.33001 17.5083C5.18096 17.5872 4.99998 17.5744 4.86359 17.4752C4.72719 17.376 4.6592 17.2078 4.68834 17.0417L5.42251 12.7592C5.52096 12.1852 5.33053 11.5996 4.91334 11.1933L1.80001 8.16249C1.6786 8.04523 1.63464 7.86903 1.68674 7.70849C1.73884 7.54794 1.87788 7.43112 2.04501 7.40749L6.34917 6.77833C6.92477 6.69459 7.42238 6.33315 7.68001 5.81166L9.60417 1.91249Z" fill="#D4AF37"/>
<path d="M9.60417 1.91249C9.67867 1.76199 9.83207 1.66675 10 1.66675C10.1679 1.66675 10.3213 1.76199 10.3958 1.91249L12.3208 5.81166C12.5783 6.33261 13.0751 6.69394 13.65 6.77833L17.955 7.40833C18.1214 7.43244 18.2597 7.54894 18.3117 7.70883C18.3637 7.86873 18.3204 8.04428 18.2 8.16166L15.0867 11.1933C14.6699 11.5995 14.4795 12.1847 14.5775 12.7583L15.3125 17.0417C15.3419 17.208 15.2738 17.3766 15.1371 17.4758C15.0004 17.5751 14.8191 17.5877 14.67 17.5083L10.8217 15.485C10.3069 15.2147 9.69224 15.2147 9.17751 15.485L5.33001 17.5083C5.18096 17.5872 4.99998 17.5744 4.86359 17.4752C4.72719 17.376 4.6592 17.2078 4.68834 17.0417L5.42251 12.7592C5.52096 12.1852 5.33053 11.5996 4.91334 11.1933L1.80001 8.16249C1.6786 8.04523 1.63464 7.86903 1.68674 7.70849C1.73884 7.54794 1.87788 7.43112 2.04501 7.40749L6.34917 6.77833C6.92477 6.69459 7.42238 6.33315 7.68001 5.81166L9.60417 1.91249" stroke="#D4AF37" stroke-width="1.66667" stroke-linecap="round" stroke-linejoin="round"/>
</svg>
