<svg width="40" height="40" viewBox="0 0 40 40" fill="none" xmlns="http://www.w3.org/2000/svg">
<path d="M19.2081 3.82499C19.3571 3.52397 19.6639 3.3335 19.9998 3.3335C20.3356 3.3335 20.6424 3.52397 20.7914 3.82499L24.6414 11.6233C25.1563 12.6652 26.1499 13.3879 27.2998 13.5567L35.9098 14.8167C36.2426 14.8649 36.5191 15.0979 36.6231 15.4177C36.7271 15.7375 36.6405 16.0886 36.3998 16.3233L30.1731 22.3867C29.3395 23.199 28.9587 24.3693 29.1548 25.5167L30.6248 34.0833C30.6835 34.416 30.5474 34.7531 30.274 34.9516C30.0007 35.1502 29.638 35.1754 29.3398 35.0167L21.6431 30.97C20.6136 30.4294 19.3842 30.4294 18.3548 30.97L10.6598 35.0167C10.3617 35.1745 9.99971 35.1487 9.72693 34.9503C9.45414 34.752 9.31815 34.4155 9.37644 34.0833L10.8448 25.5183C11.0417 24.3704 10.6608 23.1992 9.82644 22.3867L3.59977 16.325C3.35696 16.0905 3.26904 15.7381 3.37324 15.417C3.47743 15.0959 3.75552 14.8622 4.08977 14.815L12.6981 13.5567C13.8493 13.3892 14.8445 12.6663 15.3598 11.6233L19.2081 3.82499" stroke="#6B5466" stroke-width="3.33333" stroke-linecap="round" stroke-linejoin="round"/>
</svg>
