<svg width="16" height="16" viewBox="0 0 16 16" fill="none" xmlns="http://www.w3.org/2000/svg">
<path d="M8.39034 1.72398C8.14035 1.47391 7.80127 1.33339 7.44767 1.33331H2.66634C1.93045 1.33331 1.33301 1.93076 1.33301 2.66665V7.44798C1.33308 7.80157 1.47361 8.14066 1.72367 8.39065L7.52634 14.1933C8.15711 14.8201 9.17557 14.8201 9.80634 14.1933L14.193 9.80665C14.8198 9.17588 14.8198 8.15742 14.193 7.52665L8.39034 1.72398" stroke="#6B5466" stroke-width="1.33333" stroke-linecap="round" stroke-linejoin="round"/>
<path d="M4.66699 5.00002C4.66699 5.18399 4.81635 5.33335 5.00033 5.33335C5.1843 5.33335 5.33366 5.18399 5.33366 5.00002C5.33366 4.81605 5.1843 4.66669 5.00033 4.66669C4.81635 4.66669 4.66699 4.81605 4.66699 5.00002Z" fill="#6B5466"/>
<path d="M4.66699 5.00002C4.66699 5.18399 4.81635 5.33335 5.00033 5.33335C5.1843 5.33335 5.33366 5.18399 5.33366 5.00002C5.33366 4.81605 5.1843 4.66669 5.00033 4.66669C4.81635 4.66669 4.66699 4.81605 4.66699 5.00002V5.00002" stroke="#6B5466" stroke-width="1.33333" stroke-linecap="round" stroke-linejoin="round"/>
</svg>
